<svg xmlns="http://www.w3.org/2000/svg" viewBox="206.688 309.469 50 50">
  <defs>
    <style>
      .cls-1 {
        fill-rule: evenodd;
      }
    </style>
  </defs>
  <g id="Richpanel_Logo_Horizontal_Color" transform="translate(127 162)">
    <path
      id="Ellipse_6_copy_3"
      data-name="Ellipse 6 copy 3"
      class="cls-1"
      d="M112.835,153.365a2.236,2.236,0,0,1-4.353.711,4.084,4.084,0,1,0-3.61,5.983,4.023,4.023,0,0,0,2.153-.626,2.24,2.24,0,0,1,.406-.289q.074-.058.145-.122l.018.041a2.23,2.23,0,0,1,1.806,4.078l.021.049A8.563,8.563,0,0,1,97.5,160.3a16.658,16.658,0,0,0-9.254,13.091,2.743,2.743,0,0,1-2.713,2.222,2.6,2.6,0,0,1-2.6-2.592,10.188,10.188,0,0,1,.284-2.345c1.183-7.577,6.272-12.936,13.156-15.6a8.56,8.56,0,0,1,16.274-2.639l-.008.006A2.213,2.213,0,0,1,112.835,153.365Zm6.65,39.375a2.253,2.253,0,0,1,1.565-4.152,4.107,4.107,0,1,0-3.88-3.948,2.248,2.248,0,0,1,.047.5c.01.062.02.125.033.187l-.045,0a2.266,2.266,0,0,1-.29.9,2.21,2.21,0,0,1-4.121-1.366l-.053-.006a8.633,8.633,0,0,1,8.448-8.951,16.709,16.709,0,0,0-6.633-14.614,2.765,2.765,0,0,1-.555-3.476,2.58,2.58,0,0,1,3.531-.974,10.072,10.072,0,0,1,1.874,1.42c5.926,4.82,7.991,11.937,6.843,19.273a8.636,8.636,0,0,1-5.868,15.51v-.01a2.175,2.175,0,0,1-.9-.286ZM81.932,178.982a2.234,2.234,0,0,1,2.835.542,2.259,2.259,0,0,1-.047,2.9,4.144,4.144,0,0,0-.056,4.23,4.055,4.055,0,1,0,5.392-5.638,2.234,2.234,0,0,1-.451-.208c-.058-.023-.118-.045-.177-.065l.026-.037a2.26,2.26,0,0,1,.169-3.767,2.2,2.2,0,0,1,2.436.154l.031-.043a8.685,8.685,0,0,1,3.476,11.842,16.454,16.454,0,0,0,15.886,1.523,2.725,2.725,0,0,1,3.267,1.254,2.617,2.617,0,0,1-.929,3.566,10,10,0,0,1-2.158.924c-7.109,2.757-14.263,1-20-3.67a8.561,8.561,0,0,1-10.026-2.5,8.658,8.658,0,0,1-.38-10.371l.009,0a2.19,2.19,0,0,1,.693-.639Z"/>
  </g>
</svg>
