<?xml version="1.0" encoding="utf-8"?>
<!-- Generator: Adobe Illustrator 25.2.1, SVG Export Plug-In . SVG Version: 6.00 Build 0)  -->
<svg version="1.1" id="icon-search" xmlns="http://www.w3.org/2000/svg" xmlns:xlink="http://www.w3.org/1999/xlink" x="0px"
	 y="0px" viewBox="0 0 18 18" style="enable-background:new 0 0 18 18;" xml:space="preserve">
<style type="text/css">
	.st0{filter:url(#Adobe_OpacityMaskFilter);}
	.st1{fill-rule:evenodd;clip-rule:evenodd;fill:#FFFFFF;}
	.st2{mask:url(#mask-2_1_);fill-rule:evenodd;clip-rule:evenodd;}
</style>
<defs>
	<filter id="Adobe_OpacityMaskFilter" filterUnits="userSpaceOnUse" x="0" y="0" width="18" height="18">
		<feColorMatrix  type="matrix" values="1 0 0 0 0  0 1 0 0 0  0 0 1 0 0  0 0 0 1 0"/>
	</filter>
</defs>
<mask maskUnits="userSpaceOnUse" x="0" y="0" width="18" height="18" id="mask-2_1_">
	<g class="st0">
		<polygon id="path-1_1_" class="st1" points="0,0 18,0 18,18 0,18 		"/>
	</g>
</mask>
<path id="path" class="st2" d="M10.7,10.7c-1.9,1.9-5,1.9-7,0c-1.9-1.9-1.9-5,0-7c1.9-1.9,5-1.9,7,0C12.7,5.7,12.7,8.8,10.7,10.7
	 M17.8,15.8l-4.5-4.5c1.9-2.9,1.5-6.7-0.9-9.1C11,0.8,9.2,0,7.3,0c-2,0-3.8,0.8-5.1,2.1c-2.8,2.8-2.8,7.4,0,10.3
	c2.4,2.4,6.3,2.8,9.2,0.9l4.5,4.5c0.2,0.2,0.6,0.2,0.8,0l1.3-1.3C18.1,16.4,18.1,16,17.8,15.8"/>
</svg>
