<?xml version="1.0" encoding="utf-8"?>
<!-- Generator: Adobe Illustrator 25.2.1, SVG Export Plug-In . SVG Version: 6.00 Build 0)  -->
<svg version="1.1" id="Layer_1" xmlns="http://www.w3.org/2000/svg" xmlns:xlink="http://www.w3.org/1999/xlink" x="0px" y="0px"
	 viewBox="0 0 14 18" style="enable-background:new 0 0 14 18;" xml:space="preserve">
<style type="text/css">
	.st0{fill-rule:evenodd;clip-rule:evenodd;}
</style>
<path id="path" class="st0" d="M9,6H5V4.3C5,2.7,5.6,2,7,2c1.4,0,2,0.7,2,2.3V6z M10.7,5.7v-2C10.7,1.6,9,0,7,0C5,0,3.3,1.6,3.3,3.7
	v2H0.6C0.3,5.7,0,5.9,0,6.3v11.1C0,17.7,0.3,18,0.6,18h12.8c0.3,0,0.6-0.3,0.6-0.6V6.3c0-0.3-0.3-0.6-0.6-0.6H10.7z"/>
</svg>
