<?xml version="1.0" encoding="utf-8"?>
<!-- Generator: Adobe Illustrator 25.2.1, SVG Export Plug-In . SVG Version: 6.00 Build 0)  -->
<svg version="1.1" id="mc-footer-logo" xmlns="http://www.w3.org/2000/svg" xmlns:xlink="http://www.w3.org/1999/xlink" x="0px"
	 y="0px" viewBox="0 0 150 102" style="enable-background:new 0 0 150 102;" xml:space="preserve">
<style type="text/css">
	.st0{fill-rule:evenodd;clip-rule:evenodd;fill:#FFFFFF;}
</style>
<polygon id="bolt" class="st0" points="71.1,77.5 67.6,89.7 71.1,89.7 67.6,102 77.5,86.3 74,86.3 77.5,74 "/>
<polygon id="E_1_" class="st0" points="109.3,55.6 109.3,42.2 117.8,42.2 117.8,44.4 111.7,44.4 111.7,47.8 117.4,47.8 117.4,50 
	111.7,50 111.7,53.3 117.8,53.3 117.8,55.6 "/>
<polygon id="E" class="st0" points="93.7,55.6 93.7,42.2 102.1,42.2 102.1,44.4 96,44.4 96,47.8 101.8,47.8 101.8,50 96,50 96,53.3 
	102.1,53.3 102.1,55.6 "/>
<polygon id="F_1_" class="st0" points="80.9,44.4 80.9,47.8 86.7,47.8 86.7,50 80.9,50 80.9,55.6 78.6,55.6 78.6,42.2 87,42.2 
	87,44.4 "/>
<polygon id="F" class="st0" points="65.8,44.4 65.8,47.8 71.5,47.8 71.5,50 65.8,50 65.8,55.6 63.4,55.6 63.4,42.2 71.8,42.2 
	71.8,44.4 "/>
<path id="O" class="st0" d="M48.5,52.4C48.5,52.4,48.5,52.4,48.5,52.4c0.3,0.5,0.8,0.9,1,1.1c0,0,0.1,0,0.1,0h3.2c0,0,0.1,0,0.1,0
	c0.2-0.1,0.7-0.6,1-1c0,0,0-0.1,0-0.1v-6.9c0,0,0-0.1,0-0.1c-0.3-0.4-0.7-0.9-1-1c0,0-0.1,0-0.1,0h-3.2c0,0-0.1,0-0.1,0
	c-0.2,0.1-0.7,0.6-1,1c0,0,0,0.1,0,0.1V52.4z M56,53.7c-0.3,0.4-1.2,1.3-1.6,1.6c-0.4,0.2-0.9,0.4-1.4,0.4h-3.4
	c-0.5,0-1-0.2-1.4-0.4c-0.5-0.3-1.4-1.2-1.6-1.6c-0.3-0.4-0.4-0.9-0.4-1.3v-7c0-0.4,0.1-0.9,0.4-1.3c0.3-0.4,1.2-1.3,1.6-1.6
	c0.4-0.2,0.9-0.4,1.4-0.4H53c0.5,0,1,0.2,1.4,0.4c0.5,0.3,1.3,1.2,1.6,1.6c0.3,0.4,0.4,0.9,0.4,1.3v7C56.4,52.8,56.3,53.3,56,53.7
	L56,53.7z"/>
<path id="C_1_" class="st0" d="M40.1,53.8c-0.6,0.8-1.6,1.9-2.9,1.9h-2.8c-0.5,0-1-0.2-1.4-0.4c-0.5-0.3-1.4-1.2-1.6-1.6
	c-0.3-0.4-0.4-0.9-0.4-1.3v-7.1c0-0.4,0.1-0.9,0.4-1.3c0.3-0.4,1.2-1.3,1.6-1.6c0.4-0.2,0.9-0.4,1.4-0.4h2.8c1.3,0,2.3,1.1,2.9,1.9
	c0.2,0.2,0.3,0.4,0.5,0.8l-2.3,0.7c0,0-0.7-0.8-1-1c0,0-0.1,0-0.1,0h-2.6c0,0-0.1,0-0.1,0c-0.3,0.2-0.8,0.6-1,1c0,0,0,0.2,0,0.2v6.8
	c0,0.3,0.7,0.9,1,1c0,0,0.1,0,0.2,0h2.6c0,0,0.1,0,0.1,0c0.5-0.2,1-1.1,1-1.1l2.3,0.6C40.4,53.4,40.3,53.6,40.1,53.8"/>
<path id="P" class="st0" d="M145.8,6c0,0,0-0.2,0-0.3c-0.2-0.4-0.9-1.2-1.3-1.3h-0.2h-7.1v6.5h7.1c0.4,0,1.2-0.8,1.5-1.3
	c0,0,0-0.1,0-0.2V6z M149.3,11.9c-0.4,0.5-1.6,1.7-2.2,2.1c-0.8,0.6-1.9,0.9-2.8,0.9h-7.1v9.4H133V0.4h11.3c1,0,2,0.3,2.8,0.9
	c0.6,0.4,1.8,1.7,2.2,2.2c0.5,0.7,0.7,1.6,0.7,2.4v3.5C150,10.3,149.8,11.2,149.3,11.9L149.3,11.9z"/>
<path id="A_1_" class="st0" d="M115.3,5.8l-3.2,9.4h6.5L115.3,5.8z M121.6,24.4l-1.8-5.1h-9.1l-1.8,5.1h-4.5l8.4-23.9h4.9l8.3,23.9
	H121.6z"/>
<path id="C" class="st0" d="M97.8,21.2c-1,1.4-2.8,3.3-5.1,3.3h-5c-0.9,0-1.8-0.3-2.5-0.7c-0.8-0.5-2.4-2.1-2.9-2.8
	c-0.5-0.7-0.6-1.5-0.6-2.3V6.1c0-0.8,0.2-1.5,0.6-2.2c0.5-0.7,2.1-2.4,2.9-2.9c0.6-0.4,1.6-0.7,2.5-0.7h5c2.2,0,4,2,5.1,3.3
	C98.1,4,98.3,4.3,98.6,5l-4.1,1.2c0,0-1.2-1.5-1.8-1.8c0,0-0.1,0-0.2,0h-4.7c-0.1,0-0.2,0-0.2,0c-0.5,0.3-1.4,1.1-1.8,1.8
	c0,0.1,0,0.4,0,0.4v12.2c0,0.5,1.2,1.5,1.8,1.8c0,0,0.2,0,0.3,0h4.6c0,0,0.1,0,0.2,0c0.8-0.4,1.8-1.9,1.8-1.9l4.1,1.1
	C98.3,20.4,98.1,20.8,97.8,21.2"/>
<path id="D" class="st0" d="M66.3,20.3c0,0,0.2,0,0.3,0c0.6-0.3,1.8-1.4,1.8-1.8v-12c0,0,0-0.1,0-0.2c-0.5-0.8-1.3-1.5-1.8-1.8
	c0,0-0.3,0-0.4,0h-6.4v15.9H66.3z M72,20.8c-0.5,0.7-2.1,2.3-3,2.8c-0.6,0.4-1.6,0.7-2.4,0.7h-11V0.4h11c0.8,0,1.8,0.2,2.4,0.7
	C70,1.6,71.5,3.3,72,4c0.5,0.7,0.6,1.5,0.6,2.3v12.2C72.6,19.3,72.5,20.1,72,20.8L72,20.8z"/>
<path id="A" class="st0" d="M35.3,0l-8.5,25h4.5l1.8-5.3h9.2l1.8,5.3h4.5L40.3,0H35.3z M37.8,5.6l3.2,9.9h-6.5L37.8,5.6z"/>
<polygon id="M" class="st0" points="16.1,0 10.5,12.3 4.8,0 0,0 0,25 4.2,25 4.2,7.9 9,18.9 11.8,18.9 16.6,7.9 16.6,25 20.9,25 
	20.9,0 "/>
</svg>
